<?xml version="1.0" encoding="UTF-8" standalone="no"?>
<!-- Created with Inkscape (http://www.inkscape.org/) -->

<svg
   width="320"
   height="240"
   viewBox="0 0 84.666665 63.500002"
   version="1.1"
   id="svg5"
   sodipodi:docname="logotype.svg"
   inkscape:version="1.1 (c68e22c387, 2021-05-23)"
   inkscape:export-filename="/home/daniel/Projects/n64-jam-2/doc/inkscape/logotype.png"
   inkscape:export-xdpi="96"
   inkscape:export-ydpi="96"
   xmlns:inkscape="http://www.inkscape.org/namespaces/inkscape"
   xmlns:sodipodi="http://sodipodi.sourceforge.net/DTD/sodipodi-0.dtd"
   xmlns="http://www.w3.org/2000/svg"
   xmlns:svg="http://www.w3.org/2000/svg">
  <sodipodi:namedview
     id="namedview7"
     pagecolor="#000000"
     bordercolor="#666666"
     borderopacity="1.0"
     inkscape:pageshadow="2"
     inkscape:pageopacity="0"
     inkscape:pagecheckerboard="0"
     inkscape:document-units="px"
     showgrid="true"
     units="px"
     width="320px"
     inkscape:zoom="1"
     inkscape:cx="150"
     inkscape:cy="74.5"
     inkscape:window-width="2560"
     inkscape:window-height="1376"
     inkscape:window-x="0"
     inkscape:window-y="27"
     inkscape:window-maximized="1"
     inkscape:current-layer="layer2"
     gridtolerance="10"
     showguides="true"
     inkscape:guide-bbox="true"
     inkscape:lockguides="true">
    <inkscape:grid
       type="xygrid"
       id="grid824"
       spacingx="4.2333334"
       spacingy="4.2333334"
       enabled="false" />
    <sodipodi:guide
       position="32.195795,59.266667"
       orientation="0,-1"
       id="guide849"
       inkscape:locked="true" />
    <sodipodi:guide
       position="44.893159,4.2333324"
       orientation="0,-1"
       id="guide851"
       inkscape:locked="true" />
    <sodipodi:guide
       position="5.9536081,25.4"
       orientation="1,0"
       id="guide853"
       inkscape:locked="true" />
    <sodipodi:guide
       position="78.587627,21.166667"
       orientation="1,0"
       id="guide855"
       inkscape:locked="true" />
  </sodipodi:namedview>
  <defs
     id="defs2">
    <rect
       x="47.798011"
       y="27.487542"
       width="249.22609"
       height="132.51246"
       id="rect24778" />
  </defs>
  <g
     inkscape:label="title screen stuff"
     inkscape:groupmode="layer"
     id="layer1"
     sodipodi:insensitive="true"
     style="display:none">
    <text
       xml:space="preserve"
       style="font-size:4.75242px;line-height:1.25;font-family:sans-serif;word-spacing:0px;stroke-width:0.118811"
       x="29.626789"
       y="53.567501"
       id="text9689"><tspan
         sodipodi:role="line"
         id="tspan9687"
         style="stroke-width:0.118811"
         x="29.626789"
         y="53.567501">press start</tspan></text>
  </g>
  <g
     inkscape:groupmode="layer"
     id="layer2"
     inkscape:label="logotype">
    <g
       aria-label="WIZARD
OF THE
BOARD"
       transform="matrix(0.41049195,0,0,0.41049195,-1.3285269,-2.2371542)"
       id="text24776"
       style="font-size:40px;line-height:24.6px;word-spacing:0px;white-space:pre;shape-inside:url(#rect24778);stroke:none;fill:#fefefe;fill-opacity:1">
      <path
         d="m 49.465744,30.276596 q -0.08249,-0.523166 -0.412409,-0.871943 -0.329928,-0.348777 -0.824819,-0.348777 v -1.22072 h 5.897455 v 1.22072 q -0.783577,0 -1.195987,0.261583 -0.453651,0.261583 -0.329927,0.959137 L 55.569405,47.62826 57.96138,31.45372 57.837657,30.450985 q -0.08249,-0.697555 -0.494892,-1.133526 -0.412409,-0.261583 -1.154746,-0.261583 v -1.22072 h 6.268624 v 1.22072 q -0.989783,0 -1.484674,0.261583 -0.494892,0.261583 -0.371168,1.133526 l 2.474457,17.308067 2.804384,-17.438858 Q 66.044606,29.404653 65.714679,29.230265 65.425991,29.055876 64.9311,29.055876 v -1.22072 h 3.546722 v 1.22072 q -0.824819,0 -1.113506,0.348777 -0.288687,0.348777 -0.371169,0.915541 L 63.075258,54.778192 H 61.46686 L 58.497512,34.854297 55.528164,54.778192 h -1.443433 z"
         style="font-family:'AR PL UKai TW MBE';-inkscape-font-specification:'AR PL UKai TW MBE';stroke-width:1.08551;stroke:none;fill:#fefefe;fill-opacity:1"
         id="path64768" />
      <path
         d="m 77.360025,51.290421 q 0,2.267051 2.721902,2.267051 h 2.062048 v 1.22072 H 69.441762 v -1.22072 h 2.062048 q 2.721902,0 2.721902,-2.267051 V 31.322928 q 0,-2.267052 -2.721902,-2.267052 h -2.062048 v -1.22072 h 12.702213 v 1.22072 h -2.062048 q -2.721902,0 -2.721902,2.267052 z"
         style="font-family:'AR PL UKai TW MBE';-inkscape-font-specification:'AR PL UKai TW MBE';stroke-width:1.08551;stroke:none;fill:#fefefe;fill-opacity:1"
         id="path64770" />
      <path
         d="m 87.261334,53.557472 h 5.485047 q 2.020806,0 4.289058,-0.959137 2.062048,-0.871943 3.959131,-4.141728 l 1.15474,0.566762 -2.30949,5.754823 H 83.962058 V 52.99071 L 96.994201,29.055876 H 91.83908 q -2.845626,0 -4.618986,1.177124 -1.608398,1.089928 -2.020807,3.880145 l -1.195987,-0.174389 0.742337,-6.1036 H 100.6234 v 1.22072 z"
         style="font-family:'AR PL UKai TW MBE';-inkscape-font-specification:'AR PL UKai TW MBE';stroke-width:1.08551;stroke:none;fill:#fefefe;fill-opacity:1"
         id="path64772" />
      <path
         d="m 120.06552,51.900781 q 0.49489,1.656691 2.39197,1.656691 v 1.22072 h -6.51607 v -1.22072 q 0.7011,0 0.98979,-0.348777 0.28869,-0.348777 0,-1.307914 l -1.69088,-5.842018 h -7.62958 l -1.73212,6.58317 q -0.0824,0.348777 0.2062,0.741151 0.12373,0.174388 0.7011,0.174388 v 1.22072 h -4.57774 v -1.22072 q 1.85584,0 2.10328,-0.915539 l 6.10366,-23.586057 2.72191,-1.22072 z m -8.86681,-19.70591 -3.09307,11.945618 h 6.55731 z"
         style="font-family:'AR PL UKai TW MBE';-inkscape-font-specification:'AR PL UKai TW MBE';stroke-width:1.08551;stroke:none;fill:#fefefe;fill-opacity:1"
         id="path64774" />
      <path
         d="m 132.14911,53.557472 v 1.22072 H 123.571 v -1.22072 q 2.7219,0 2.7219,-2.267051 V 31.322928 q 0,-2.267052 -2.7219,-2.267052 v -1.22072 h 9.11424 1.81461 q 3.34052,0 5.48505,1.700289 2.39197,1.874677 2.39197,4.446909 0,3.574966 -2.43322,5.362449 -1.97956,1.438706 -5.03139,1.918274 l 5.65001,10.637704 q 0.9073,1.656691 2.72191,1.656691 v 1.22072 h -4.53651 l -7.05221,-13.297129 h -2.26824 v 9.809358 q 0,2.267051 2.72189,2.267051 z m -0.28868,-24.501596 q -2.43321,0 -2.43321,2.267052 v 8.937415 h 2.26824 q 3.17556,0 5.27884,-1.569497 2.26826,-1.656692 2.26826,-4.708492 0,-2.136261 -1.89708,-3.487772 -2.02082,-1.438706 -5.48505,-1.438706 z"
         style="font-family:'AR PL UKai TW MBE';-inkscape-font-specification:'AR PL UKai TW MBE';stroke-width:1.08551;stroke:none;fill:#fefefe;fill-opacity:1"
         id="path64776" />
      <path
         d="m 147.69695,31.322928 q 0,-2.267052 -2.7219,-2.267052 v -1.22072 h 8.08323 q 5.15511,0 7.50585,3.008204 3.54672,4.664894 3.54672,10.594106 0,6.888349 -3.09307,10.332524 -2.76315,3.008202 -7.9595,3.008202 h -8.08323 v -1.22072 q 2.7219,0 2.7219,-2.267051 z m 3.13431,0 v 19.967493 q 0,2.267051 2.22702,2.267051 2.88686,0 5.48504,-2.964606 2.43322,-2.746619 2.43322,-9.1554 0,-6.539572 -2.47446,-9.634969 -2.18576,-2.746621 -5.4438,-2.746621 -2.22702,0 -2.22702,2.267052 z"
         style="font-family:'AR PL UKai TW MBE';-inkscape-font-specification:'AR PL UKai TW MBE';stroke-width:1.08551;stroke:none;fill:#fefefe;fill-opacity:1"
         id="path64778" />
      <path
         d="m 53.968123,59.212193 q 3.03699,-2.402038 6.594607,-2.402038 3.557617,0 6.594606,2.402038 3.167148,2.505351 3.167148,5.83721 0,3.33186 -3.167148,5.837211 -3.036989,2.402038 -6.594606,2.402038 -3.557617,0 -6.594607,-2.402038 -3.167146,-2.505351 -3.167146,-5.837211 0,-3.331859 3.167146,-5.83721 z m 10.716237,0.61988 q -1.995737,-2.298724 -4.12163,-2.298724 -2.125893,0 -4.121629,2.298724 -2.342821,2.737807 -2.342821,5.21733 0,2.479523 2.342821,5.21733 1.995736,2.298725 4.121629,2.298725 2.125893,0 4.12163,-2.298725 2.34282,-2.737807 2.34282,-5.21733 0,-2.479523 -2.34282,-5.21733 z"
         style="font-family:'AR PL UKai TW MBE';-inkscape-font-specification:'AR PL UKai TW MBE';stroke-width:0.856962;stroke:none;fill:#fefefe;fill-opacity:1"
         id="path64780" />
      <path
         d="m 76.815056,70.964099 q 0,1.343075 2.863448,1.343075 v 0.723194 h -9.024198 v -0.723194 q 2.863447,0 2.863447,-1.343075 V 59.134708 q 0,-1.343075 -2.863447,-1.343075 V 57.068439 H 90.09104 v 4.003396 h -1.084638 q 0,-2.014613 -1.995736,-2.68615 -1.692038,-0.594052 -4.208401,-0.594052 h -3.644388 q -2.342821,0 -2.342821,1.343075 v 5.398128 h 4.729028 q 3.297303,0 3.297303,-2.066269 h 1.084639 v 4.984874 h -1.084639 q 0,-2.195411 -3.297303,-2.195411 h -4.729028 z"
         style="font-family:'AR PL UKai TW MBE';-inkscape-font-specification:'AR PL UKai TW MBE';stroke-width:0.856962;stroke:none;fill:#fefefe;fill-opacity:1"
         id="path64782" />
      <path
         d="m 112.21238,70.964099 q 0,1.343075 2.82872,1.343075 h 2.14296 v 0.723194 h -13.20067 v -0.723194 h 2.14297 q 2.82871,0 2.82871,-1.343075 V 57.791633 h -2.22868 q -2.40013,0 -4.80025,2.84112 l -1.15719,-0.284112 1.80008,-3.280202 h 16.0294 l 1.80008,3.280202 -1.1572,0.284112 q -2.40012,-2.84112 -4.80024,-2.84112 h -2.22869 z"
         style="font-family:'AR PL UKai TW MBE';-inkscape-font-specification:'AR PL UKai TW MBE';stroke-width:0.851748;stroke:none;fill:#fefefe;fill-opacity:1"
         id="path64784" />
      <path
         d="m 142.81394,73.030368 h -8.91474 v -0.723194 q 2.82871,0 2.82871,-1.343075 v -5.68224 h -8.40042 v 5.68224 q 0,1.343075 2.82872,1.343075 v 0.723194 h -8.91474 v -0.723194 q 2.82871,0 2.82871,-1.343075 V 59.134708 q 0,-1.343075 -2.82871,-1.343075 v -0.723194 h 8.91474 v 0.723194 q -2.82872,0 -2.82872,1.343075 v 5.423957 h 8.40042 v -5.423957 q 0,-1.343075 -2.82871,-1.343075 v -0.723194 h 8.91474 v 0.723194 q -2.82872,0 -2.82872,1.343075 v 11.829391 q 0,1.343075 2.82872,1.343075 z"
         style="font-family:'AR PL UKai TW MBE';-inkscape-font-specification:'AR PL UKai TW MBE';stroke-width:0.851748;stroke:none;fill:#fefefe;fill-opacity:1"
         id="path64786" />
      <path
         d="m 164.07217,57.068439 v 4.003396 h -1.07148 q 0,-1.988784 -1.97153,-2.68615 -1.67152,-0.594052 -4.15736,-0.594052 h -3.60018 q -2.31441,0 -2.31441,1.343075 v 5.398128 h 4.67168 q 3.2573,0 3.2573,-2.066269 h 1.07148 v 4.984874 h -1.07148 q 0,-2.195411 -3.2573,-2.195411 h -4.67168 v 5.708069 q 0,1.343075 2.31441,1.343075 h 1.20006 q 3.08587,0 5.35741,-0.645709 1.84296,-0.516568 3.42875,-2.68615 l 0.77147,0.15497 -1.62866,3.900083 h -17.52946 v -0.723194 q 2.82871,0 2.82871,-1.343075 V 59.134708 q 0,-1.343075 -2.82871,-1.343075 v -0.723194 z"
         style="font-family:'AR PL UKai TW MBE';-inkscape-font-specification:'AR PL UKai TW MBE';stroke-width:0.851748;stroke:none;fill:#fefefe;fill-opacity:1"
         id="path64788" />
      <path
         id="path64798"
         style="font-family:'AR PL UKai TW MBE';-inkscape-font-specification:'AR PL UKai TW MBE';stroke-width:1.12304;stroke:none;fill:#fefefe;fill-opacity:1"
         d="m 144.89264,77.944907 c 0,-1.354167 -1.08387,-2.03125 -3.25161,-2.03125 v -1.09375 h 9.65632 c 4.10558,0 7.09445,0.898438 8.9666,2.695313 2.82464,2.786458 4.23697,5.95052 4.23697,9.492187 0,4.114585 -1.23168,7.200524 -3.69504,9.257817 -2.20059,1.796873 -5.3701,2.69531 -9.50853,2.69531 h -9.65632 v -1.09375 c 2.16774,0 3.25161,-0.677083 3.25161,-2.03125 z m 3.74429,0 v 17.890627 c 0,1.354167 0.8868,2.03125 2.66042,2.03125 2.29913,0 4.4833,-0.885417 6.55251,-2.65625 1.93784,-1.640627 2.90676,-4.375002 2.90676,-8.203127 0,-3.90625 -0.98535,-6.783854 -2.95602,-8.632812 -1.74076,-1.640625 -3.90851,-2.460938 -6.50325,-2.460938 -1.77362,0 -2.66042,0.677083 -2.66042,2.03125 z m -21.35254,19.921877 v 1.09375 h -10.24754 v -1.09375 c 2.16775,0 3.25164,-0.677083 3.25164,-2.03125 V 77.944907 c 0,-1.354167 -1.08389,-2.03125 -3.25164,-2.03125 v -1.09375 h 10.88801 2.16774 c 2.66043,0 4.84461,0.507813 6.55253,1.523438 1.90499,1.119791 2.85749,2.447916 2.85749,3.984375 0,2.135417 -0.96893,3.736979 -2.90677,4.804687 -1.57654,0.859375 -3.58006,1.432292 -6.01056,1.71875 l 6.74957,9.531247 c 0.72258,0.989587 1.80647,1.48438 3.25163,1.48438 v 1.09375 h -5.41938 L 126.74245,87.04647 h -2.70967 v 8.789064 c 0,1.354167 1.08387,2.03125 3.25161,2.03125 z m -0.34487,-21.953127 c -1.93783,0 -2.90674,0.677083 -2.90674,2.03125 v 8.007813 h 2.70967 c 2.52904,0 4.6311,-0.46875 6.30618,-1.40625 1.80646,-0.989583 2.7097,-2.395833 2.7097,-4.21875 0,-1.276042 -0.75544,-2.317709 -2.2663,-3.125 -1.60939,-0.859375 -3.79356,-1.289063 -6.55251,-1.289063 z m -13.92564,20.468747 c 0.39414,0.989587 1.34663,1.48438 2.85749,1.48438 v 1.09375 h -7.78418 v -1.09375 c 0.55836,0 0.95248,-0.104167 1.1824,-0.3125 0.22991,-0.208333 0.22991,-0.59896 0,-1.17188 l -2.01994,-5.23437 h -9.114403 l -2.069203,5.89844 c -0.06573,0.208333 0.01637,0.429687 0.246322,0.66406 0.09854,0.104167 0.377716,0.15625 0.837538,0.15625 v 1.09375 h -5.468633 v -1.09375 c 1.47801,0 2.315549,-0.273437 2.512617,-0.82031 l 7.291512,-21.132817 3.25162,-1.09375 z M 102.42148,78.726157 98.726452,89.429284 H 106.5599 Z M 76.245871,78.062095 c 2.299126,-2.421875 4.795322,-3.632813 7.488584,-3.632813 2.693263,0 5.189458,1.210938 7.488585,3.632813 2.397661,2.526041 3.596492,5.46875 3.596492,8.828125 0,3.359376 -1.198831,6.302084 -3.596492,8.828124 -2.299127,2.421874 -4.795322,3.632811 -7.488585,3.632811 -2.693262,0 -5.189458,-1.210937 -7.488584,-3.632811 -2.397661,-2.52604 -3.596491,-5.468748 -3.596491,-8.828124 0,-3.359375 1.19883,-6.302084 3.596491,-8.828125 z m 12.16895,0.9375 c -1.510854,-2.317709 -3.070977,-3.476563 -4.680366,-3.476563 -1.609388,0 -3.169509,1.158854 -4.680365,3.476563 -1.773612,2.760417 -2.660418,5.390625 -2.660418,7.890625 0,2.500003 0.886806,5.130211 2.660418,7.890624 1.510856,2.317707 3.070977,3.47656 4.680365,3.47656 1.609389,0 3.169512,-1.158853 4.680366,-3.47656 1.773612,-2.760413 2.660418,-5.390621 2.660418,-7.890624 0,-2.5 -0.886806,-5.130208 -2.660418,-7.890625 z M 52.757785,95.835534 V 77.944907 c 0,-1.354167 -1.083874,-2.03125 -3.251622,-2.03125 v -1.09375 H 62.06925 c 1.773612,0 3.51438,0.520833 5.222302,1.5625 1.937835,1.171875 2.906752,2.65625 2.906752,4.453125 0,1.40625 -0.886806,2.65625 -2.660418,3.75 -1.149562,0.703125 -2.33197,1.25 -3.547224,1.640625 1.740768,0.3125 3.317311,0.820313 4.729632,1.523438 2.430505,1.197919 3.645759,2.825522 3.645759,4.882809 0,1.84896 -0.936073,3.320317 -2.80822,4.41407 -2.167748,1.27604 -5.238724,1.91406 -9.21293,1.91406 h -10.83874 v -1.09375 c 2.167748,0 3.251622,-0.677083 3.251622,-2.03125 z m 3.744292,-8.945314 v 8.945314 c 0,1.354167 1.280942,2.03125 3.842826,2.03125 2.660419,0 4.762478,-0.520833 6.306177,-1.5625 1.313788,-0.88542 1.970681,-2.10938 1.970681,-3.67188 0,-1.64062 -0.985341,-3.04687 -2.956021,-4.21875 -1.675078,-1.015623 -3.842826,-1.523434 -6.503244,-1.523434 z m 0,-8.945313 v 7.851563 h 2.660419 c 2.266282,0 4.039894,-0.481771 5.320836,-1.445313 1.313786,-0.989583 1.97068,-2.161458 1.97068,-3.515625 0,-1.536458 -0.624049,-2.747395 -1.872146,-3.632812 -1.215252,-0.859375 -2.939597,-1.289063 -5.173034,-1.289063 -1.937837,0 -2.906755,0.677083 -2.906755,2.03125 z"
         sodipodi:nodetypes="sccscscsccssssscscssccccsscccscsccccccccscsscscscscccccsccccccccccccccccccscscscsccscscscscssccscscccscsccscsscscscscscscss" />
    </g>
  </g>
</svg>
